<svg width="24" height="25" viewBox="0 0 24 25" fill="none" xmlns="http://www.w3.org/2000/svg">
<path d="M20.317 5.29117C18.7873 4.60054 17.147 4.09172 15.4319 3.80029C15.4007 3.79467 15.3695 3.80873 15.3534 3.83684C15.1424 4.20604 14.9087 4.68769 14.7451 5.06626C12.9004 4.79452 11.0652 4.79452 9.25832 5.06626C9.09465 4.67927 8.85248 4.20604 8.64057 3.83684C8.62448 3.80966 8.59328 3.79561 8.56205 3.80029C6.84791 4.09079 5.20756 4.59961 3.67693 5.29117C3.66368 5.2968 3.65233 5.30617 3.64479 5.31835C0.533392 9.89219 -0.31895 14.3536 0.0991801 18.7597C0.101072 18.7813 0.11337 18.8019 0.130398 18.815C2.18321 20.2984 4.17171 21.1989 6.12328 21.7958C6.15451 21.8052 6.18761 21.7939 6.20748 21.7686C6.66913 21.1483 7.08064 20.4942 7.43348 19.8064C7.4543 19.7661 7.43442 19.7183 7.39186 19.7024C6.73913 19.4587 6.1176 19.1617 5.51973 18.8244C5.47244 18.7972 5.46865 18.7306 5.51216 18.6988C5.63797 18.606 5.76382 18.5095 5.88396 18.412C5.90569 18.3942 5.93598 18.3905 5.96153 18.4017C9.88928 20.1662 14.1415 20.1662 18.023 18.4017C18.0485 18.3895 18.0788 18.3933 18.1015 18.4111C18.2216 18.5086 18.3475 18.606 18.4742 18.6988C18.5177 18.7306 18.5149 18.7972 18.4676 18.8244C17.8697 19.1682 17.2482 19.4587 16.5945 19.7015C16.552 19.7174 16.533 19.7661 16.5538 19.8064C16.9143 20.4933 17.3258 21.1473 17.7789 21.7677C17.7978 21.7939 17.8319 21.8052 17.8631 21.7958C19.8241 21.1989 21.8126 20.2984 23.8654 18.815C23.8834 18.8019 23.8948 18.7822 23.8967 18.7606C24.3971 13.6667 23.0585 9.24187 20.3482 5.31928C20.3416 5.30617 20.3303 5.2968 20.317 5.29117ZM8.02002 16.0768C6.8375 16.0768 5.86313 15.0086 5.86313 13.6967C5.86313 12.3848 6.8186 11.3165 8.02002 11.3165C9.23087 11.3165 10.1958 12.3942 10.1769 13.6967C10.1769 15.0086 9.22141 16.0768 8.02002 16.0768ZM15.9947 16.0768C14.8123 16.0768 13.8379 15.0086 13.8379 13.6967C13.8379 12.3848 14.7933 11.3165 15.9947 11.3165C17.2056 11.3165 18.1705 12.3942 18.1516 13.6967C18.1516 15.0086 17.2056 16.0768 15.9947 16.0768Z" fill="white"/>
</svg>
