<svg width="24" height="25" viewBox="0 0 24 25" fill="none" xmlns="http://www.w3.org/2000/svg">
<g clip-path="url(#clip0_4845_1439)">
<path d="M12.007 2.96043C15.2152 2.96043 15.5951 2.9745 16.8568 3.03076C18.0293 3.08233 18.6625 3.27924 19.0846 3.44334C19.6428 3.65901 20.0461 3.92156 20.4636 4.33883C20.8857 4.76078 21.1436 5.1593 21.3594 5.71722C21.5236 6.13918 21.7205 6.7768 21.7721 7.94422C21.8284 9.21009 21.8425 9.58985 21.8425 12.792C21.8425 15.9989 21.8284 16.3787 21.7721 17.6399C21.7205 18.812 21.5236 19.4449 21.3594 19.8669C21.1436 20.4248 20.881 20.828 20.4636 21.2453C20.0414 21.6672 19.6428 21.9251 19.0846 22.1407C18.6625 22.3048 18.0246 22.5017 16.8568 22.5533C15.5904 22.6096 15.2105 22.6236 12.007 22.6236C8.79891 22.6236 8.419 22.6096 7.15732 22.5533C5.98476 22.5017 5.35157 22.3048 4.92945 22.1407C4.37131 21.9251 3.96795 21.6625 3.55052 21.2453C3.1284 20.8233 2.87043 20.4248 2.65468 19.8669C2.49052 19.4449 2.29353 18.8073 2.24194 17.6399C2.18566 16.374 2.17159 15.9942 2.17159 12.792C2.17159 9.58516 2.18566 9.2054 2.24194 7.94422C2.29353 6.77211 2.49052 6.13918 2.65468 5.71722C2.87043 5.1593 3.13309 4.7561 3.55052 4.33883C3.97264 3.91687 4.37131 3.65901 4.92945 3.44334C5.35157 3.27924 5.98945 3.08233 7.15732 3.03076C8.419 2.9745 8.79891 2.96043 12.007 2.96043ZM12.007 0.799072C8.74731 0.799072 8.33926 0.813138 7.05882 0.869399C5.78308 0.925659 4.906 1.13195 4.14618 1.42732C3.35353 1.73676 2.68282 2.14465 2.01681 2.81509C1.3461 3.48085 0.93805 4.15129 0.628493 4.93894C0.333008 5.70316 0.126637 6.5752 0.0703537 7.85045C0.0140707 9.13508 0 9.54297 0 12.8014C0 16.0599 0.0140707 16.4678 0.0703537 17.7477C0.126637 19.0229 0.333008 19.8997 0.628493 20.6592C0.93805 21.4515 1.3461 22.122 2.01681 22.7877C2.68282 23.4535 3.35353 23.8661 4.14149 24.1708C4.906 24.4662 5.77839 24.6725 7.05413 24.7287C8.33457 24.785 8.74262 24.7991 12.0023 24.7991C15.2621 24.7991 15.6701 24.785 16.9506 24.7287C18.2263 24.6725 19.1034 24.4662 19.8632 24.1708C20.6512 23.8661 21.3219 23.4535 21.9879 22.7877C22.6539 22.122 23.0666 21.4515 23.3715 20.6639C23.667 19.8997 23.8734 19.0276 23.9296 17.7524C23.9859 16.4724 24 16.0646 24 12.8061C24 9.54766 23.9859 9.13976 23.9296 7.85983C23.8734 6.58458 23.667 5.70784 23.3715 4.94832C23.076 4.15129 22.668 3.48085 21.9973 2.81509C21.3313 2.14934 20.6605 1.73676 19.8726 1.43201C19.1081 1.13664 18.2357 0.930348 16.9599 0.874087C15.6748 0.813138 15.2668 0.799072 12.007 0.799072Z" fill="white"/>
<path d="M12 6.79907C8.68745 6.79907 6 9.48652 6 12.7991C6 16.1116 8.68745 18.7991 12 18.7991C15.3125 18.7991 18 16.1116 18 12.7991C18 9.48652 15.3125 6.79907 12 6.79907ZM12 16.6911C9.85095 16.6911 8.10798 14.9481 8.10798 12.7991C8.10798 10.65 9.85095 8.90706 12 8.90706C14.149 8.90706 15.892 10.65 15.892 12.7991C15.892 14.9481 14.149 16.6911 12 16.6911Z" fill="white"/>
<path d="M19.5 6.42407C19.5 7.04704 18.9943 7.54907 18.375 7.54907C17.752 7.54907 17.25 7.04337 17.25 6.42407C17.25 5.80111 17.7557 5.29907 18.375 5.29907C18.9943 5.29907 19.5 5.80477 19.5 6.42407Z" fill="white"/>
</g>
<defs>
<clipPath id="clip0_4845_1439">
<rect width="24" height="24" fill="white" transform="translate(0 0.799072)"/>
</clipPath>
</defs>
</svg>
