<svg width="24" height="25" viewBox="0 0 24 25" fill="none" xmlns="http://www.w3.org/2000/svg">
<g clip-path="url(#clip0_4845_1443)">
<path d="M17.0725 0.799072H13.0278V17.1469C13.0278 19.0947 11.4722 20.6947 9.53626 20.6947C7.60034 20.6947 6.04469 19.0947 6.04469 17.1469C6.04469 15.2339 7.56577 13.6686 9.43257 13.5991V9.49474C5.31872 9.56427 2 12.9382 2 17.1469C2 21.3904 5.38786 24.7991 9.57085 24.7991C13.7538 24.7991 17.1416 21.3556 17.1416 17.1469V8.76427C18.6627 9.87734 20.5295 10.5382 22.5 10.573V6.46864C19.4579 6.36429 17.0725 3.85994 17.0725 0.799072Z" fill="white"/>
</g>
<defs>
<clipPath id="clip0_4845_1443">
<rect width="24" height="24" fill="white" transform="translate(0 0.799072)"/>
</clipPath>
</defs>
</svg>
