<svg width="1440" height="907" viewBox="0 0 1440 907" fill="none" xmlns="http://www.w3.org/2000/svg">
<path d="M23.2063 942.408C15.2852 941.511 -4.09766 947.643 -12.799 950.821L-19.9999 943.53L-5.5979 922.217L-5.59762 11.0051L55.2056 18.0076C55.2056 18.0076 67.3267 17.5153 73.8228 17.5073L87.7857 26.5106C96.4295 26.0104 119.787 14.6864 142.308 15.0065C178.877 21.0086 254.011 17.5074 254.011 17.5074L304.946 27.5128L381.671 19.5082C405.375 22.3125 417.081 22.3033 432.204 20.5085C451.106 18.2651 550.979 20.5379 571.833 10.505C578.845 7.13119 599.012 20.7052 687.525 23.5095L884.081 20.9304C890.082 19.2478 904.784 16.4435 915.586 18.6869C922.282 20.0776 951.568 5.3936 998.698 7.00078C1001.58 7.09917 1054.55 9.0015 1086.46 10.0019C1078.49 21.5059 1153.33 10.5316 1155.61 30.5092C1156.88 41.6047 1163.71 2.83688 1220.77 1.50173C1224.95 1.40402 1328.9 3.10024 1333.14 3.00221C1377.94 1.96693 1380.19 12.7097 1413.6 12.0054L1443.71 0.00122667L1443.71 890L1451.49 897.003C1451.49 897.003 1445.46 907.338 1446.17 911.508L1468.78 916.009C1484.74 920.011 1483.56 922.781 1484.07 923.512C1484.74 930.014 1495.62 930.455 1496.04 933.015C1496.04 933.015 1508.89 939.913 1509.34 943.019C1509.73 945.695 1507.04 946.701 1507.35 949.021C1507.35 949.021 1511.75 955.57 1512 958.024C1512 958.024 1500.87 965.047 1500.03 965.027C1479.42 964.527 1462.06 952.981 1457.48 956.024C1454.26 958.16 1452.82 964.027 1452.82 964.027C1445.17 968.101 1426.89 971.529 1426.89 971.529C1426.89 972.873 1394.98 963.026 1394.98 963.026C1390.39 963.35 1381.73 963.607 1375.7 964.027L1362.4 956.024L1297.24 950.522C1288.36 950.75 1222.77 955.023 1222.77 955.023C1222.77 955.023 1209.1 950.34 1202.82 950.522C1179.15 951.207 1141.53 949.383 1137.66 949.521L1117.05 941.018C1108.05 941.766 1096.82 942.07 1091.78 942.519C1090.75 942.611 1081.15 938.017 1081.15 938.017C1073.86 938.497 1047.64 941.068 1038.59 941.518C1038.59 941.518 975.388 938.992 966.783 938.517C966.783 938.517 962.128 931.015 959.469 930.515C827.394 905.676 731.306 937.227 597.488 949.138C572.284 951.382 484.072 937.36 473.27 936.799C462.469 936.238 374.256 946.895 366.155 946.895C358.054 946.895 350.853 944.091 337.351 946.334C323.849 948.577 263.541 943.53 247.338 944.091C231.136 944.651 142.923 951.943 122.22 951.943C101.517 951.943 33.1077 943.53 23.2063 942.408Z" fill="black"/>
</svg>
