<svg width="1440" height="117" viewBox="0 0 1440 117" fill="none" xmlns="http://www.w3.org/2000/svg">
<path d="M23.2063 87.6292C15.2852 86.7318 -4.09766 92.8639 -12.799 96.0421L-19.9999 88.7508L-5.5979 67.4382L-5.59767 -35.9961L55.2056 -28.9937C55.2056 -28.9937 67.3266 -29.4859 73.8227 -29.4938L87.7856 -20.4906C96.4294 -20.9908 119.787 -32.3148 142.308 -31.9947C178.877 -25.9926 254.01 -29.4938 254.01 -29.4938L304.946 -19.4884L381.671 -27.4931C405.374 -24.6888 417.081 -24.698 432.203 -26.4927C451.106 -28.7362 550.979 -26.4633 571.832 -36.4963C578.845 -39.8701 599.012 -26.296 687.525 -23.4917L884.081 -26.0708C890.082 -27.7534 904.784 -30.5577 915.585 -28.3142C922.281 -26.9235 951.567 -41.6076 998.698 -40.0004C1001.58 -39.902 1054.55 -37.9997 1086.46 -36.9993C1078.49 -25.4953 1153.33 -36.4697 1155.61 -16.492C1156.88 -5.39651 1163.71 -44.1643 1220.77 -45.4994C1224.95 -45.5971 1328.9 -43.9009 1333.14 -43.999C1377.94 -45.0343 1380.19 -34.2914 1413.59 -34.9958L1443.71 -47L1443.71 -20.7785L1451.49 -13.7761C1451.49 -13.7761 1445.46 52.5596 1446.17 56.7291L1468.78 61.2307C1484.74 65.2321 1483.56 68.0022 1484.07 68.7333C1484.74 75.2356 1495.62 75.6763 1496.04 78.2367C1496.04 78.2367 1508.89 85.1346 1509.34 88.2402C1509.73 90.9165 1507.04 91.922 1507.35 94.2424C1507.35 94.2424 1511.75 100.791 1512 103.246C1512 103.246 1500.87 110.268 1500.03 110.248C1479.42 109.748 1462.06 98.2026 1457.48 101.245C1454.26 103.381 1452.82 109.248 1452.82 109.248C1445.17 113.322 1426.89 116.75 1426.89 116.75C1426.89 118.095 1394.98 108.247 1394.98 108.247C1390.39 108.571 1381.73 108.828 1375.7 109.248L1362.4 101.245L1297.24 95.7428C1288.36 95.971 1222.77 100.244 1222.77 100.244C1222.77 100.244 1209.1 95.5612 1202.82 95.7429C1179.15 96.4281 1141.53 94.6038 1137.66 94.7425L1117.05 86.2395C1108.05 86.9873 1096.82 87.2913 1091.78 87.74C1090.75 87.8319 1081.15 83.2384 1081.15 83.2384C1073.86 83.718 1047.64 86.2895 1038.59 86.7397C1038.59 86.7397 975.388 60.213 966.783 59.7386C966.783 59.7386 847.66 51.0002 845 50.5C712.925 25.6614 731.306 58.448 597.488 70.3594C572.284 72.6029 484.072 58.5814 473.27 58.0205C462.469 57.4597 374.256 68.116 366.155 68.116C358.054 68.116 350.853 65.3117 337.351 67.5552C323.849 69.7986 263.541 64.7509 247.338 65.3117C231.136 65.8726 142.923 97.1638 122.22 97.1638C101.517 97.1638 33.1077 88.7509 23.2063 87.6292Z" fill="black"/>
</svg>
