<svg width="181" height="64" viewBox="0 0 181 64" fill="none" xmlns="http://www.w3.org/2000/svg">
<g filter="url(#filter0_d_2460_69)">
<path d="M12.2774 54.9963C11.5009 54.9153 9.60083 55.469 8.74786 55.756L8.04198 55.0976L9.45377 53.173L7.95373 24.7585L9.10083 13.1604L7.07134 7.74115C7.48313 7.42039 8.51844 6.84977 9.36553 7.1334C10.2126 7.41702 17.4834 7.55545 21.0129 7.58922L39.8958 8.34892L42.8958 7.99439C45.2194 8.24762 50.2372 8.71357 51.7196 8.5515C53.5726 8.34892 56.6609 7.13339 57.5433 7.48792C58.2492 7.77154 75.7791 8.34891 84.4558 8.60215L97.8679 8.14633L113.65 6.67757L116.297 7.58921L122.739 7.03209C123.327 6.88015 124.768 6.62692 125.827 6.82951C126.483 6.95509 127.399 6.98411 132.019 7.12924C132.302 7.13813 140.862 6.03669 141.144 6.04523C140.362 7.08407 145.145 7.5359 145.604 7.48791C146.025 7.44401 150.15 6.12063 155.744 6.00006C156.153 5.99124 160.477 7.19053 160.893 7.18167C165.285 7.08818 166.771 6.9944 170.046 6.9308L173.929 6.77886L173.046 8.19697L171.899 13.1097C171.87 15.2538 171.811 24.4951 171.811 24.8598C171.811 25.2244 171.34 25.8221 171.105 26.0753L171.811 26.7337C171.576 27.0207 171.035 27.7365 170.752 28.3038C170.399 29.0128 172.782 55.4015 172.429 55.8573C172.076 56.3131 169.34 55.5534 168.635 55.3002C167.929 55.047 164.046 55.3002 161.046 55.3002C158.646 55.3002 147.34 54.4898 141.987 54.0847C141.104 54.1522 139.216 54.2974 138.722 54.3379C138.104 54.3885 135.016 53.9834 133.957 53.8821C132.898 53.7808 121.251 54.5405 119.486 54.7937C118.074 54.9963 106.662 55.5872 101.133 55.8573L97.6914 55.3002C95.9561 55.2495 91.8501 55.1179 89.3089 54.9963C87.0147 54.895 71.0437 55.4015 68.573 55.6041C66.1023 55.8067 57.4551 54.5405 56.3962 54.4898C55.3374 54.4392 46.6901 55.4015 45.8959 55.4015C45.1018 55.4015 44.3959 55.1483 43.0723 55.3508C41.7487 55.5534 35.8368 55.0976 34.2486 55.1483C32.6603 55.1989 24.013 55.8573 21.9835 55.8573C19.954 55.8573 13.248 55.0976 12.2774 54.9963Z" fill="#182827"/>
<path d="M12.2774 54.9963C11.5009 54.9153 9.60083 55.469 8.74786 55.756L8.04198 55.0976L9.45377 53.173L7.95373 24.7585L9.10083 13.1604L7.07134 7.74115C7.48313 7.42039 8.51844 6.84977 9.36553 7.1334C10.2126 7.41702 17.4834 7.55545 21.0129 7.58922L39.8958 8.34892L42.8958 7.99439C45.2194 8.24762 50.2372 8.71357 51.7196 8.5515C53.5726 8.34892 56.6609 7.13339 57.5433 7.48792C58.2492 7.77154 75.7791 8.34891 84.4558 8.60215L97.8679 8.14633L113.65 6.67757L116.297 7.58921L122.739 7.03209C123.327 6.88015 124.768 6.62692 125.827 6.82951C126.483 6.95509 127.399 6.98411 132.019 7.12924C132.302 7.13813 140.862 6.03669 141.144 6.04523C140.362 7.08407 145.145 7.5359 145.604 7.48791C146.025 7.44401 150.15 6.12063 155.744 6.00006C156.153 5.99124 160.477 7.19053 160.893 7.18167C165.285 7.08818 166.771 6.9944 170.046 6.9308L173.929 6.77886L173.046 8.19697L171.899 13.1097C171.87 15.2538 171.811 24.4951 171.811 24.8598C171.811 25.2244 171.34 25.8221 171.105 26.0753L171.811 26.7337C171.576 27.0207 171.035 27.7365 170.752 28.3038C170.399 29.0128 172.782 55.4015 172.429 55.8573C172.076 56.3131 169.34 55.5534 168.635 55.3002C167.929 55.047 164.046 55.3002 161.046 55.3002C158.646 55.3002 147.34 54.4898 141.987 54.0847C141.104 54.1522 139.216 54.2974 138.722 54.3379C138.104 54.3885 135.016 53.9834 133.957 53.8821C132.898 53.7808 121.251 54.5405 119.486 54.7937C118.074 54.9963 106.662 55.5872 101.133 55.8573L97.6914 55.3002C95.9561 55.2495 91.8501 55.1179 89.3089 54.9963C87.0147 54.895 71.0437 55.4015 68.573 55.6041C66.1023 55.8067 57.4551 54.5405 56.3962 54.4898C55.3374 54.4392 46.6901 55.4015 45.8959 55.4015C45.1018 55.4015 44.3959 55.1483 43.0723 55.3508C41.7487 55.5534 35.8368 55.0976 34.2486 55.1483C32.6603 55.1989 24.013 55.8573 21.9835 55.8573C19.954 55.8573 13.248 55.0976 12.2774 54.9963Z" stroke="black"/>
</g>
<path d="M168.838 31.1671C169.5 28.4012 167.735 18.49 166.77 13.8801C166.447 12.2844 160.98 10.4227 158.912 10.6887C156.845 10.9546 144.851 12.2844 141.956 11.4865C139.061 10.6887 134.511 10.9546 131.616 11.7525C128.721 12.5504 118.796 12.2844 115.901 9.89083C113.006 7.49724 106.388 9.35892 103.493 11.2206C100.598 13.0823 97.2897 12.0185 93.9811 10.6887C90.6725 9.35892 79.5059 10.6887 75.3702 11.2206C71.2344 11.7525 55.105 8.82701 50.9693 8.56105C46.8335 8.2951 48.0742 10.9546 44.7656 10.9546C42.1187 10.9546 35.3913 10.2454 32.3584 9.89082L34.0127 12.0184C28.3605 12.639 16.7252 13.9865 15.4018 14.412C13.7475 14.9439 12.5068 20.529 10.8525 21.5928C9.19825 22.6566 10.439 48.72 12.0933 50.3157C13.7476 51.9115 19.9512 54.0391 24.087 54.0391C28.2227 54.0391 32.772 51.3796 36.0806 50.3157C39.3892 49.2519 43.9386 49.5179 46.0064 51.3796C47.6607 52.8689 48.9015 52.0001 49.315 51.3796L55.1051 54.305C58.2758 53.5958 65.6926 52.1774 69.9938 52.1774C75.3703 52.1774 81.9875 53.7731 86.1232 53.7731C90.259 53.7731 92.7404 52.1774 97.2898 51.1136C101.839 50.0498 110.111 52.4434 113.419 53.5072C116.066 54.3582 122.794 53.6845 125.826 53.2412L131.617 51.9115C132.168 52.2661 134.181 52.9753 137.82 52.9753C142.369 52.9753 156.017 52.4434 159.326 51.3796C161.973 50.5285 165.116 50.6703 166.357 50.8477V45.7945C166.908 42.0712 168.177 33.933 168.838 31.1671Z" fill="#17342F"/>
<defs>
<filter id="filter0_d_2460_69" x="0.474258" y="0.500061" width="180.377" height="62.9999" filterUnits="userSpaceOnUse" color-interpolation-filters="sRGB">
<feFlood flood-opacity="0" result="BackgroundImageFix"/>
<feColorMatrix in="SourceAlpha" type="matrix" values="0 0 0 0 0 0 0 0 0 0 0 0 0 0 0 0 0 0 127 0" result="hardAlpha"/>
<feOffset dy="1"/>
<feGaussianBlur stdDeviation="3"/>
<feComposite in2="hardAlpha" operator="out"/>
<feColorMatrix type="matrix" values="0 0 0 0 0 0 0 0 0 0 0 0 0 0 0 0 0 0 1 0"/>
<feBlend mode="normal" in2="BackgroundImageFix" result="effect1_dropShadow_2460_69"/>
<feBlend mode="normal" in="SourceGraphic" in2="effect1_dropShadow_2460_69" result="shape"/>
</filter>
</defs>
</svg>
