<svg width="808" height="808" viewBox="0 0 808 808" fill="none" xmlns="http://www.w3.org/2000/svg">
<path d="M783.591 39.5029C784.48 35.1419 777.371 13.3371 775.593 5.86108L709.727 14.2659L703.387 17.4873L693.877 17.0267L675.649 16.5669L606.699 15.1863L337.24 14.2655L10.7198 1.65408e-05C8.05374 4.15334 -2.8494 18.9441 0.705349 26.4201C3.06668 31.3864 4.61941 60.3045 6.63089 87.1463C8.40433 110.812 43.1738 728.167 43.5684 731.207C46.7371 755.623 10.9141 683.247 6.96014 725.962L6.06799 727.339C6.06756 727.34 6.0672 727.34 6.06677 727.341C5.63629 727.847 5.2055 728.355 5.17169 728.723C3.36981 748.348 3.31061 767.903 2.4823 785.065L1.8457 798.081L3.58673 801.893L3.58673 807.416L12.9542 808L24.6992 805.575L102.652 802.253L117.71 797.752C120.696 797.735 118.309 800.992 122.465 800.973C126.497 800.955 130.231 801.74 135.146 801.72C164.827 801.6 208.652 801.457 242.929 801.352C270.865 801.267 292.02 800.053 294.444 800.053C298.086 800.053 307.456 797.145 311.879 795.911C325.352 790.849 325.023 796.627 326.937 795.911L325.352 798.672L331.692 797.292C334.389 796.402 337.33 797.427 342.788 795.911C347.52 794.596 350.69 794.657 355.313 793.731C360.778 792.636 448.467 797.429 544.882 800.513C620.263 802.925 700.669 805.095 753.316 806.496C763.091 806.756 772.675 803.573 780.262 803.734C795.32 805.115 808 803.734 808 803.734C808 803.734 806.243 803.624 804.83 799.593C804.017 797.273 803.1 800.696 801.66 798.212C798.939 793.52 801.096 780.919 799.282 778.884C796.613 775.89 798.344 764.7 799.199 751.733C799.767 743.112 800.476 733.66 800.476 725.201C800.476 708.255 786.257 100.349 779.148 62.554C780.333 56.3239 782.88 42.9917 783.591 39.5029Z" fill="url(#paint0_linear_2522_4)"/>
<defs>
<linearGradient id="paint0_linear_2522_4" x1="-0.00025308" y1="232.587" x2="808" y2="232.587" gradientUnits="userSpaceOnUse">
<stop stop-color="#0C464F"/>
<stop offset="1" stop-color="#052829"/>
</linearGradient>
</defs>
</svg>
