<svg width="350" height="809" viewBox="0 0 350 809" fill="none" xmlns="http://www.w3.org/2000/svg">
<path d="M354.89 39.5464C355.323 35.1807 351.859 13.3518 350.993 5.86755L318.901 14.2817L315.812 17.5066L311.178 17.0454L302.297 16.5851L268.703 15.2031L137.415 14.2813L-21.6752 8.05916e-06C-22.9741 4.15791 -28.2864 18.965 -26.5545 26.4492C-25.4039 31.421 -24.6474 60.371 -23.6674 87.2423C-22.8033 110.934 -5.86261 728.969 -5.67035 732.013C-4.1265 756.456 -21.5804 684 -23.5069 726.762L-23.9415 728.14C-23.9418 728.141 -23.942 728.141 -23.9422 728.142C-24.152 728.649 -24.3619 729.157 -24.3783 729.526C-25.2563 749.172 -25.2851 768.749 -25.6887 785.93L-25.9988 798.961L-25.1506 802.777L-25.1506 808.305L-20.5865 808.89L-14.864 806.463L23.117 803.137L30.4537 798.631C31.9083 798.614 30.7453 801.874 32.7705 801.855C34.7347 801.837 36.5542 802.623 38.9488 802.603C53.4102 802.483 74.7632 802.34 91.4639 802.235C105.075 802.149 115.382 800.934 116.563 800.934C118.338 800.934 122.903 798.024 125.058 796.788C131.623 791.72 131.462 797.504 132.395 796.788L131.623 799.552L134.712 798.17C136.026 797.279 137.459 798.306 140.118 796.788C142.423 795.472 143.968 795.532 146.22 794.606C148.883 793.51 191.608 798.307 238.584 801.395C275.311 803.809 314.488 805.982 340.139 807.384C344.901 807.644 349.571 804.459 353.267 804.62C360.604 806.002 366.782 804.62 366.782 804.62C366.782 804.62 365.926 804.509 365.238 800.474C364.842 798.151 364.395 801.578 363.693 799.092C362.368 794.395 363.419 781.779 362.535 779.742C361.234 776.745 362.078 765.542 362.494 752.561C362.771 743.931 363.116 734.468 363.116 726C363.116 709.036 356.189 100.46 352.725 62.6229C353.302 56.386 354.543 43.0391 354.89 39.5464Z" fill="url(#paint0_linear_2488_948)"/>
<defs>
<linearGradient id="paint0_linear_2488_948" x1="-26.8982" y1="232.843" x2="366.782" y2="232.843" gradientUnits="userSpaceOnUse">
<stop stop-color="#0C464F"/>
<stop offset="1" stop-color="#052829"/>
</linearGradient>
</defs>
</svg>
