<svg width="1" height="1" viewBox="0 0 1 1" fill="none" xmlns="http://www.w3.org/2000/svg">
<path d="M0.872714 0.0440252C0.873704 0.0391676 0.865785 0.0148801 0.863806 0.00655288L0.79044 0.0159147L0.783378 0.0195029L0.772785 0.0189897L0.752481 0.0184777L0.675681 0.0169399L0.375541 0.0159143L0.0118426 2.44563e-05C0.00887307 0.00465067 -0.00327144 0.0211256 0.000687978 0.0294528C0.00331821 0.0349845 0.00504776 0.0671953 0.00728824 0.0970932C0.0092636 0.123454 0.047992 0.811101 0.0484316 0.814488C0.051961 0.841684 0.0120591 0.761067 0.00765502 0.808645L0.00666129 0.810179C0.00666082 0.81018 0.0066604 0.810181 0.00665992 0.810181L0.00566291 0.811721C0.00570058 0.81131 0.0061804 0.810746 0.00665992 0.810181C0.0066604 0.810181 0.00666082 0.81018 0.00666129 0.810179C0.00713956 0.809616 0.00761723 0.809054 0.00765502 0.808645C0.0120591 0.761067 0.051961 0.841684 0.0484316 0.814488C0.047992 0.811101 0.0092636 0.123454 0.00728824 0.0970932C0.00504776 0.0671953 0.00331821 0.0349845 0.000687978 0.0294528C-0.00327144 0.0211256 0.00887307 0.00465067 0.0118426 2.44563e-05L0.375541 0.0159143L0.675681 0.0169399L0.752481 0.0184777L0.772785 0.0189897L0.783378 0.0195029L0.79044 0.0159147L0.863806 0.00655288C0.865785 0.0148801 0.873704 0.0391676 0.872714 0.0440252L0.867765 0.0697008C0.875684 0.1118 0.891521 0.788923 0.891521 0.807798C0.891521 0.81722 0.890732 0.827748 0.890099 0.83735C0.889147 0.851794 0.887219 0.864259 0.890192 0.867593C0.892213 0.86986 0.88981 0.883896 0.89284 0.889122C0.894445 0.891889 0.895466 0.888076 0.896371 0.89066C0.897945 0.89515 0.899902 0.895273 0.899902 0.895273C0.899902 0.895273 0.885778 0.896811 0.869006 0.895273C0.860555 0.895093 0.84988 0.898638 0.838992 0.898349C0.780351 0.896789 0.690789 0.894371 0.606825 0.891685C0.499433 0.888249 0.401759 0.882911 0.395672 0.884131C0.390523 0.885162 0.386991 0.885095 0.38172 0.886559C0.375642 0.888248 0.372366 0.887106 0.369362 0.888097L0.362299 0.889635L0.364065 0.886559C0.361933 0.887356 0.362299 0.880921 0.347292 0.886559C0.342366 0.887934 0.331929 0.891172 0.327872 0.891172C0.325172 0.891172 0.301609 0.892524 0.270492 0.892619L0.150436 0.893029C0.144962 0.893051 0.140802 0.892177 0.136312 0.892197C0.131682 0.892218 0.134341 0.888591 0.131015 0.888609L0.114243 0.893623L0.0274138 0.897323L0.0143315 0.900024L0.00389743 0.899374L0.00389743 0.893222L0.00195819 0.888976L0.00266731 0.874478C0.00358993 0.855362 0.00365585 0.83358 0.00566291 0.811721L0.00665992 0.810181C0.0061804 0.810746 0.00570058 0.81131 0.00566291 0.811721C0.00365585 0.83358 0.00358993 0.855362 0.00266731 0.874478L0.00195819 0.888976L0.00389743 0.893222L0.00389743 0.899374L0.0143315 0.900024L0.0274138 0.897323L0.114243 0.893623L0.131015 0.888609C0.134341 0.888591 0.131682 0.892218 0.136312 0.892197C0.140802 0.892177 0.144962 0.893051 0.150436 0.893029L0.270492 0.892619C0.301609 0.892524 0.325172 0.891172 0.327872 0.891172C0.331929 0.891172 0.342366 0.887934 0.347292 0.886559C0.362299 0.880921 0.361933 0.887356 0.364065 0.886559L0.362299 0.889635L0.369362 0.888097C0.372366 0.887106 0.375642 0.888248 0.38172 0.886559C0.386991 0.885095 0.390523 0.885162 0.395672 0.884131C0.401759 0.882911 0.499433 0.888249 0.606825 0.891685C0.690789 0.894371 0.780351 0.896789 0.838992 0.898349C0.84988 0.898638 0.860555 0.895093 0.869006 0.895273C0.885778 0.896811 0.899902 0.895273 0.899902 0.895273C0.899902 0.895273 0.897945 0.89515 0.896371 0.89066C0.895466 0.888076 0.894445 0.891889 0.89284 0.889122C0.88981 0.883896 0.892213 0.86986 0.890192 0.867593C0.887219 0.864259 0.889147 0.851794 0.890099 0.83735C0.890732 0.827748 0.891521 0.81722 0.891521 0.807798C0.891521 0.788923 0.875684 0.1118 0.867765 0.0697008L0.872714 0.0440252Z" fill="url(#paint0_linear_2515_2)"/>
<defs>
<linearGradient id="paint0_linear_2515_2" x1="-9.79227e-05" y1="0.259094" x2="0.899902" y2="0.259094" gradientUnits="userSpaceOnUse">
<stop stop-color="#0C464F"/>
<stop offset="1" stop-color="#052829"/>
</linearGradient>
</defs>
</svg>
